<?xml version="1.0" encoding="UTF-8" standalone="no"?>
<!-- Created with Inkscape (http://www.inkscape.org/) -->

<svg
   xmlns:dc="http://purl.org/dc/elements/1.1/"
   xmlns:cc="http://creativecommons.org/ns#"
   xmlns:rdf="http://www.w3.org/1999/02/22-rdf-syntax-ns#"
   xmlns:svg="http://www.w3.org/2000/svg"
   xmlns="http://www.w3.org/2000/svg"
   xmlns:xlink="http://www.w3.org/1999/xlink"
   xmlns:sodipodi="http://sodipodi.sourceforge.net/DTD/sodipodi-0.dtd"
   xmlns:inkscape="http://www.inkscape.org/namespaces/inkscape"
   width="60"
   height="60"
   viewBox="0 0 60.000001 60.000001"
   id="svg5561"
   version="1.1"
   inkscape:version="0.91 r13725"
   sodipodi:docname="antiracismicon.svg">
  <defs
     id="defs5563">
    <clipPath
       id="SVGID_2_">
      <use
         height="100%"
         width="100%"
         y="0"
         x="0"
         style="overflow:visible"
         xlink:href="#SVGID_1_"
         overflow="visible"
         id="use3737" />
    </clipPath>
    <clipPath
       id="SVGID_4_">
      <use
         height="100%"
         width="100%"
         y="0"
         x="0"
         style="overflow:visible"
         xlink:href="#SVGID_3_"
         overflow="visible"
         id="use3753" />
    </clipPath>
  </defs>
  <sodipodi:namedview
     id="base"
     pagecolor="#ffffff"
     bordercolor="#666666"
     borderopacity="1.0"
     inkscape:pageopacity="0.0"
     inkscape:pageshadow="2"
     inkscape:zoom="9.8328125"
     inkscape:cx="14.902861"
     inkscape:cy="26.329219"
     inkscape:document-units="px"
     inkscape:current-layer="layer1"
     showgrid="false"
     units="px"
     inkscape:window-width="1920"
     inkscape:window-height="1017"
     inkscape:window-x="-8"
     inkscape:window-y="-8"
     inkscape:window-maximized="1" />
  <metadata
     id="metadata5566">
    <rdf:RDF>
      <cc:Work
         rdf:about="">
        <dc:format>image/svg+xml</dc:format>
        <dc:type
           rdf:resource="http://purl.org/dc/dcmitype/StillImage" />
        <dc:title></dc:title>
      </cc:Work>
    </rdf:RDF>
  </metadata>
  <g
     inkscape:label="Layer 1"
     inkscape:groupmode="layer"
     id="layer1"
     transform="translate(0,-992.36216)">
    <g
       id="g3819"
       transform="matrix(0.48576972,0,0,0.56723027,-34.213476,1077.2467)">
      <g
         id="g3995"
         transform="translate(11.797235,-2.4408072)">
        <g
           transform="matrix(1.6014258,0,0,1.6014258,66.658429,-132.39497)"
           id="g3731">
          <defs
             id="defs3733">
            <polyline
               id="SVGID_1_"
               points="0,0 0,53 300,53 300,0   " />
          </defs>
          <clipPath
             id="clipPath6315">
            <use
               height="100%"
               width="100%"
               y="0"
               x="0"
               style="overflow:visible"
               xlink:href="#SVGID_1_"
               overflow="visible"
               id="use6317" />
          </clipPath>
          <path
             style="fill:#ffffff"
             inkscape:connector-curvature="0"
             clip-path="url(#SVGID_2_)"
             d="m 34.242,48.935 c 0,0 3.275,1.922 5.999,-0.192 2.373,-1.835 1.916,-4.061 1.916,-4.061 0,0 2.535,1.303 5.027,-0.878 1.896,-1.664 1.27,-4.063 1.27,-4.063 0,0 2.394,1.21 4.523,-1.021 2.126,-2.228 0.989,-4.526 0.989,-4.526 0,0 2.426,1.392 5.151,-1.227 2.095,-2.021 1.058,-4.735 1.058,-4.735 0,0 2.585,-2.691 4.062,-4.828 1.476,-2.134 2.307,-4.157 2.307,-7.055 l 0,-12.256 c 0,0 0.211,-1.711 -0.992,-2.992 C 64.354,-0.171 62.391,0.01 62.391,0.01 l -16.521,0 c 0,0 -3.993,0.046 -7.317,0.974 -3.242,0.909 -5.303,1.973 -5.303,1.973 0,0 -2.518,-1.407 -5.745,-2.157 C 19.772744,-0.63989297 11.80192,0.011 3.966,0.011 c 0,0 -1.525,-0.189 -2.835,1.066 C 0.066,2.102 0,4.001 0,4.001 c -0.10693161,7.924338 -0.51750636,16.039281 3.69,21.538 2.679,3.338 5.907,5.754 5.907,5.754 l 24.645,17.642"
             id="path3739"
             sodipodi:nodetypes="ccccccccccsccccccccccccc" />
        </g>
        <g
           transform="matrix(1.2608044,0,0,1.2608044,-131.16926,73.623541)"
           id="g3747">
          <defs
             id="defs3749">
            <polyline
               id="SVGID_3_"
               points="0,0 0,53 300,53 300,0   " />
          </defs>
          <clipPath
             id="clipPath6323">
            <use
               height="100%"
               width="100%"
               y="0"
               x="0"
               style="overflow:visible"
               xlink:href="#SVGID_3_"
               overflow="visible"
               id="use6325" />
          </clipPath>
          <path
             style="fill:#00897b;fill-opacity:1"
             inkscape:connector-curvature="0"
             clip-path="url(#SVGID_4_)"
             d="m 33.480989,48.000481 c 0,0 3.765568,1.975978 6.489568,-0.138022 2.373,-1.835 2.186443,-3.180459 2.186443,-3.180459 0,0 2.336503,0.906005 4.828503,-1.274995 1.896,-1.664 1.468497,-3.666005 1.468497,-3.666005 0,0 3.121823,1.937823 5.250823,-0.293177 2.126,-2.228 0.261177,-5.253823 0.261177,-5.253823 0,0 2.426,1.392 5.151,-1.227 2.095,-2.021 1.058,-4.735 1.058,-4.735 3.28259,-3.398876 10.66901,-4.911741 6.369,-11.883 C 62.24399,9.3777405 54.380812,2.8538039 46.057145,0.80536628 41.853688,-0.22909606 36.961634,3.9848105 33.25,2.957 29.538366,1.9291895 24.976797,-0.70679437 20.581,0.011 12.462721,1.3366425 3.4545978,6.9253675 0.8270719,15.064177 -0.28498405,18.50879 0.356,21.371 3.69,25.539 c 2.679,3.338 7.56986,7.46766 7.56986,7.46766 l 1.569214,-1.619821 C 12.829074,31.386839 6.784,26.637 4.888,23.867 1.844,19.411 2.0104204,18.304593 2.8881548,15.613249 5.0714358,8.9187838 12.187777,3.7065163 19.01,1.963 23.110066,0.91516984 27.396585,2.5177928 31.447,4.512 l -11.882,7.705 c 0,0 -1.248,0.837 -1.595,1.581 -0.471,1.011 -0.06,2.727 0.948,3.573 3.915521,2.7734 8.971831,2.148592 11.446,0.275 11.740289,-9.1167448 18.990711,1.344756 27.594,10.029 0,0 1.803,2.254 -0.228,4.083 -2.195,1.972 -4.711,0 -4.711,0 0,0 -10.075884,-9.872707 -15.92,-14.342 0,0 -0.641,-0.302 -1.106,0.186 -0.577,0.601 -0.094,1.206 -0.094,1.206 5.777918,4.258475 15.531,14.202 15.531,14.202 0,0 2.917823,3.187823 0.980823,5.115823 C 50.553823,39.969823 47.229,37.046 47.229,37.046 c 0,0 -8.395192,-7.8721 -13.773,-11.972 0,0 -0.763,-0.511 -1.316,0.231 -0.503,0.675 0.066,1.186 0.066,1.186 4.7699,3.533471 13.296,11.582 13.296,11.582 0,0 2.034503,1.869005 0.304503,3.842005 -1.521,1.745 -4.000503,0.516995 -4.000503,0.516995 0,0 -5.793649,-5.237304 -9.414,-8.17 0,0 -0.726,-0.52 -1.358,0.021 -0.627,0.541 0.069,1.28 0.069,1.28 3.008428,2.410174 8.579,7.613 8.579,7.613 0,0 0.37147,1.954679 -1.36253,3.109679 -1.847,1.232 -6.274508,-1.475345 -6.274508,-1.475345 l -1.709224,1.882353"
             id="path3757"
             sodipodi:nodetypes="ccccccccczszssccccaaccccccccccccccccccccccccccc"
             transform="matrix(1.270162,0,0,1.270162,156.72766,-163.58071)" />
          <path
             style="fill:#00897b;fill-opacity:1;fill-rule:evenodd;stroke:#00897b;stroke-width:1.6551286px;stroke-linecap:butt;stroke-linejoin:miter;stroke-opacity:1"
             d="m 189.12744,-100.46914 c 3.82524,-0.0426 7.17167,-5.81388 7.17167,-5.81388 3.0533,-3.16885 0.99791,-11.8354 -7.1554,-6.88104 5.73045,-5.38838 -1.54786,-12.09428 -7.08876,-6.98159 7.07838,-7.30535 -3.11264,-13.56607 -8.90575,-7.5755 6.85433,-6.84202 -3.53446,-11.38573 -10.25896,-3.72632 -1.41703,1.56339 -2.5358,2.43841 -3.83471,6.15162 -2.72581,7.79228 18.86886,24.95138 30.07191,24.82671 z"
             id="path4531"
             inkscape:connector-curvature="0"
             sodipodi:nodetypes="scccccss" />
        </g>
      </g>
    </g>
    <rect
       style="opacity:1;fill:none;fill-opacity:1;stroke:none;stroke-width:1.58248687;stroke-linecap:round;stroke-linejoin:miter;stroke-miterlimit:4;stroke-dasharray:none;stroke-opacity:1"
       id="rect4600"
       width="58.417515"
       height="58.417515"
       x="0.79124343"
       y="993.15338" />
  </g>
</svg>
