<?xml version="1.0" encoding="UTF-8" standalone="no"?>
<!-- Created with Inkscape (http://www.inkscape.org/) -->

<svg
   xmlns:dc="http://purl.org/dc/elements/1.1/"
   xmlns:cc="http://creativecommons.org/ns#"
   xmlns:rdf="http://www.w3.org/1999/02/22-rdf-syntax-ns#"
   xmlns:svg="http://www.w3.org/2000/svg"
   xmlns="http://www.w3.org/2000/svg"
   xmlns:sodipodi="http://sodipodi.sourceforge.net/DTD/sodipodi-0.dtd"
   xmlns:inkscape="http://www.inkscape.org/namespaces/inkscape"
   width="60"
   height="60"
   viewBox="0 0 60.000001 60.000001"
   id="svg5561"
   version="1.1"
   inkscape:version="0.91 r13725"
   sodipodi:docname="climatejusticeicon.svg">
  <defs
     id="defs5563">
    <clipPath
       id="SVGID_2_">
      <polyline
         points="0,0 0,53 300,53 300,0   "
         id="use3737" />
    </clipPath>
    <clipPath
       id="SVGID_4_">
      <polyline
         points="0,0 0,53 300,53 300,0   "
         id="use3753" />
    </clipPath>
  </defs>
  <sodipodi:namedview
     id="base"
     pagecolor="#ffffff"
     bordercolor="#666666"
     borderopacity="1.0"
     inkscape:pageopacity="0.0"
     inkscape:pageshadow="2"
     inkscape:zoom="9.8328125"
     inkscape:cx="14.902861"
     inkscape:cy="26.329219"
     inkscape:document-units="px"
     inkscape:current-layer="layer1"
     showgrid="false"
     units="px"
     inkscape:window-width="1920"
     inkscape:window-height="1017"
     inkscape:window-x="-8"
     inkscape:window-y="-8"
     inkscape:window-maximized="1" />
  <metadata
     id="metadata5566">
    <rdf:RDF>
      <cc:Work
         rdf:about="">
        <dc:format>image/svg+xml</dc:format>
        <dc:type
           rdf:resource="http://purl.org/dc/dcmitype/StillImage" />
        <dc:title></dc:title>
      </cc:Work>
    </rdf:RDF>
  </metadata>
  <g
     inkscape:label="Layer 1"
     inkscape:groupmode="layer"
     id="layer1"
     transform="translate(0,-992.36216)">
    <circle
       style="opacity:1;fill:none;fill-opacity:1;stroke:#00897b;stroke-width:1.78387105;stroke-linecap:round;stroke-linejoin:miter;stroke-miterlimit:4;stroke-dasharray:none;stroke-opacity:1"
       id="path4536"
       cx="30.849638"
       cy="1013.3839"
       r="17.523035" />
    <path
       style="fill:#00897b;fill-opacity:1;fill-rule:evenodd;stroke:#00897b;stroke-width:0.29731181px;stroke-linecap:butt;stroke-linejoin:miter;stroke-opacity:1"
       d="m 31.538474,1030.1911 c -2.16325,-1.3109 -0.0669,-5.7524 -2.06646,-7.3015 -1.5614,-1.2096 -4.47648,1.2063 -5.92384,-0.1378 -1.38621,-1.2872 -1.33993,-3.9289 -0.55105,-5.6483 0.63224,-1.3779 2.20654,-2.5218 3.71962,-2.6175 1.76311,-0.1114 2.93497,2.2307 4.68397,2.4798 1.34634,0.1917 2.78755,-1.452 3.99514,-0.8266 1.73483,0.8984 0.48492,4.766 2.34199,5.3728 0.6064,0.1981 1.09319,-1.27 1.65315,-0.9644 0.92795,0.5065 0.66187,2.2505 0.13776,3.1686 -0.387,0.678 -1.72334,0.4009 -2.06644,1.1021 -0.59394,1.2138 1.44888,2.8778 0.68881,3.9952 -1.26635,1.8616 -4.68705,2.5444 -6.61265,1.3776 z"
       id="path4540"
       inkscape:connector-curvature="0"
       sodipodi:nodetypes="aaaaaaaaaaaaa" />
    <path
       style="fill:#00897b;fill-opacity:1;fill-rule:evenodd;stroke:#00897b;stroke-width:0.29731181px;stroke-linecap:butt;stroke-linejoin:miter;stroke-opacity:1"
       d="m 36.429084,998.50545 c -0.61673,1.95155 1.70867,4.60475 0.34441,6.13045 -0.82773,0.9257 -2.521,-0.1179 -3.71963,0.2067 -1.02092,0.2764 -2.3147,0.5196 -2.82414,1.4465 -0.59976,1.0912 1.13795,2.7601 0.34441,3.7196 -0.45576,0.5511 -1.55896,0.6299 -2.13534,0.2067 -0.71866,-0.5278 0.32661,-2.4604 -0.55105,-2.6176 -0.72113,-0.1291 -1.17276,1.1273 -1.171,1.8599 9.3e-4,0.5987 1.05013,0.9228 0.96434,1.5154 -0.13525,0.9341 -2.13534,1.8598 -2.13534,1.8598 -0.32942,0.2869 -0.50571,1.3087 -0.0689,1.3087 0,0 1.28588,0.3183 1.79093,0 0.49525,-0.3121 0.27666,-1.2507 0.7577,-1.5843 0.64398,-0.4466 1.65786,-0.5889 2.34198,-0.2066 0.62745,0.3506 0.3038,1.6453 0.96434,1.9287 0.7943,0.3408 2.4568,-0.1148 2.47975,-0.7577 0.0229,-0.6429 -0.54853,-1.748 0.069,-1.9287 0,0 2.23407,-1.6101 2.82417,-0.8266 0.49049,0.6513 -1.21564,1.2565 -1.30877,2.0665 -0.11938,1.0388 0.51805,2.0519 1.03323,2.9619 0.70683,1.2484 2.75528,3.3063 2.75528,3.3063 0,0 2.68773,-1.2497 2.54861,-2.4109 -0.088,-0.7352 -1.93117,-0.3616 -1.92868,-1.1021 0.002,-0.843 1.39924,-0.9895 2.20421,-1.2398 0.96867,-0.3013 2.03128,-0.4488 3.03082,-0.2756 1.0223,0.1773 2.82415,1.3088 2.82415,1.3088 1.75004,0.811 0.7394,-4.0348 -0.0689,-5.7861 0,0 -1.39164,-3.7276 -2.47974,-5.3728 -1.09398,-1.6541 -2.49818,-3.1077 -3.99515,-4.40835 -1.17294,-1.0192 -2.3217,-2.8546 -3.85737,-2.6176 -0.54931,0.085 -0.86574,0.7788 -1.03323,1.3088 z"
       id="path4542"
       inkscape:connector-curvature="0"
       sodipodi:nodetypes="sssssssssssssssssssscssssssssss" />
    <path
       style="fill:#00897b;fill-opacity:1;fill-rule:evenodd;stroke:#00897b;stroke-width:0.29731181px;stroke-linecap:butt;stroke-linejoin:miter;stroke-opacity:1"
       d="m 28.014254,996.69125 c 0.81653,0.7189 -0.54701,2.2962 -0.0487,3.2633 0.37954,0.73665 1.98175,0.58635 2.04568,1.41255 0.13294,1.7175 -2.0596,3.226 -3.75043,3.5556 -0.87299,0.1701 -2.37184,-0.092 -2.48405,-0.9742 -0.1467,-1.1533 2.94813,-0.8896 2.825,-2.0457 -0.0938,-0.8819 -1.55518,-0.9626 -2.43535,-1.0715 -0.86619,-0.1072 -1.99351,-0.2067 -2.58146,0.4383 -0.72388,0.7943 0.38651,2.3441 -0.24353,3.2147 -0.54624,0.7547 -1.7943,0.5731 -2.58146,1.0715 -0.38848,0.246 -1.20418,0.503 -1.02285,0.9255 0.34034,0.793 2.31332,-1.0151 2.58147,-0.1948 0.26738,0.8178 -1.6006,0.7385 -2.19181,1.3637 -0.67394,0.7127 -1.27698,1.61 -1.41249,2.5815 -0.15181,1.0883 0.60805,2.1226 0.7306,3.2146 0.0616,0.5486 0.50356,1.4299 0,1.6561 -0.53505,0.2402 -0.92572,-0.7304 -1.3151,-1.169 -0.30197,-0.3402 -0.33503,-1.218 -0.77929,-1.1203 -0.54746,0.1205 -0.27501,1.0958 -0.29224,1.6561 -0.0222,0.7186 0.0639,1.4469 0.24352,2.1431 0.20182,0.7824 0.32016,1.7052 0.92543,2.2405 0.36587,0.3236 1.10004,0.014 1.4125,0.3897 0.47961,0.5761 0.0799,1.4997 0.19482,2.2405 0.20425,1.3155 2.08232,3.3318 0.87673,3.8965 -2.07612,0.9725 -3.34929,-3.3218 -4.18879,-5.4551 -1.12869,-2.8684 -1.42595,-6.1725 -0.87671,-9.2056 0.62102,-3.4296 2.26918,-6.7899 4.57843,-9.4004 1.67982,-1.89905 4.00663,-3.24995 6.38059,-4.14015 1.07496,-0.403 2.54784,-1.2457 3.40948,-0.487 z"
       id="path4544"
       inkscape:connector-curvature="0"
       sodipodi:nodetypes="aaaaaaaaaaaaaaaaaaaaaaaaaaaaa" />
    <path
       sodipodi:nodetypes="ssssssssscccs"
       inkscape:connector-curvature="0"
       id="path4548"
       d="m 21.998294,1032.9437 c -1.47695,-0.016 -2.37795,1.2463 -1.90096,1.8301 2.53473,3.1022 3.98235,4.8723 3.26058,4.7565 -0.98948,-0.1586 -3.19282,-1.7302 -3.66575,-2.2395 -0.54876,-0.591 -2.7586,-2.1088 -2.75025,-5.6752 0.002,-0.8807 -0.10988,-1.2067 0.24418,-3.5801 0.17235,-1.1553 -1.22419,-1.8986 -1.65499,-0.879 -1.87165,4.4294 -0.13856,8.7251 -0.13856,8.7251 1.03973,3.7853 6.50269,7.4582 8.31364,9.0919 0.42437,0.3828 0.28034,3.5372 0.28034,3.5372 l 6.15628,-0.1329 c 0,0 -0.22544,-0.6929 -0.65019,-6.3309 -0.61733,-4.1725 -7.43621,-9.102 -7.49432,-9.1027 z"
       style="fill:#00897b;fill-opacity:1;fill-rule:evenodd;stroke:#00897b;stroke-width:0.14770502px;stroke-linecap:butt;stroke-linejoin:miter;stroke-opacity:1" />
    <rect
       y="993.15338"
       x="0.79124343"
       height="58.417515"
       width="58.417515"
       id="rect4602"
       style="opacity:1;fill:none;fill-opacity:1;stroke:none;stroke-width:1.58248687;stroke-linecap:round;stroke-linejoin:miter;stroke-miterlimit:4;stroke-dasharray:none;stroke-opacity:1" />
    <path
       style="fill:#00897b;fill-opacity:1;fill-rule:evenodd;stroke:#00897b;stroke-width:0.14776398;stroke-linecap:butt;stroke-linejoin:miter;stroke-miterlimit:4;stroke-dasharray:none;stroke-opacity:1"
       d="m 40.669594,1032.9437 c 1.47697,-0.016 2.37796,1.2463 1.90097,1.8301 -2.53473,3.1022 -3.98235,4.8723 -3.26058,4.7565 0.98948,-0.1586 3.19282,-1.7302 3.66576,-2.2395 0.54876,-0.591 2.7586,-2.1088 2.75024,-5.6752 -0.002,-0.8807 0.10988,-1.2067 -0.24418,-3.5801 -0.17235,-1.1553 1.22419,-1.8986 1.655,-0.879 1.87164,4.4294 0.13856,8.7251 0.13856,8.7251 -1.03972,3.7853 -6.5027,7.4582 -8.31364,9.0919 -0.42438,0.3828 -0.28035,3.5372 -0.28035,3.5372 l -6.15627,-0.1329 c 0,0 0.22543,-0.6929 0.65019,-6.3309 0.61732,-4.1725 7.4362,-9.102 7.4943,-9.1027 z"
       id="path4690"
       inkscape:connector-curvature="0"
       sodipodi:nodetypes="ssssssssscccs" />
  </g>
</svg>
