<?xml version="1.0" encoding="UTF-8" standalone="no"?>
<!-- Created with Inkscape (http://www.inkscape.org/) -->

<svg
   xmlns:dc="http://purl.org/dc/elements/1.1/"
   xmlns:cc="http://creativecommons.org/ns#"
   xmlns:rdf="http://www.w3.org/1999/02/22-rdf-syntax-ns#"
   xmlns:svg="http://www.w3.org/2000/svg"
   xmlns="http://www.w3.org/2000/svg"
   xmlns:sodipodi="http://sodipodi.sourceforge.net/DTD/sodipodi-0.dtd"
   xmlns:inkscape="http://www.inkscape.org/namespaces/inkscape"
   width="410"
   height="410"
   viewBox="0 0 410 410.00001"
   id="svg4800"
   version="1.1"
   inkscape:version="0.91 r13725"
   sodipodi:docname="lionsgate1.svg">
  <defs
     id="defs4802" />
  <sodipodi:namedview
     id="base"
     pagecolor="#ffffff"
     bordercolor="#666666"
     borderopacity="1.0"
     inkscape:pageopacity="0.0"
     inkscape:pageshadow="2"
     inkscape:zoom="2"
     inkscape:cx="137.15124"
     inkscape:cy="177.15966"
     inkscape:document-units="px"
     inkscape:current-layer="layer1"
     showgrid="false"
     units="px"
     inkscape:window-width="1920"
     inkscape:window-height="1017"
     inkscape:window-x="-8"
     inkscape:window-y="-8"
     inkscape:window-maximized="1" />
  <metadata
     id="metadata4805">
    <rdf:RDF>
      <cc:Work
         rdf:about="">
        <dc:format>image/svg+xml</dc:format>
        <dc:type
           rdf:resource="http://purl.org/dc/dcmitype/StillImage" />
        <dc:title />
      </cc:Work>
    </rdf:RDF>
  </metadata>
  <g
     inkscape:label="Layer 1"
     inkscape:groupmode="layer"
     id="layer1"
     transform="translate(0,-642.36216)">
    <path
       sodipodi:nodetypes="ccccc"
       inkscape:connector-curvature="0"
       id="path4533"
       d="m 245.21743,1018.0389 9.71903,-0.6478 -5.18342,-363.43025 -6.96538,0.16197 c -1.15958,121.28577 1.98771,242.58263 2.42977,363.91608 z"
       style="fill:#00897b;fill-opacity:1;fill-rule:evenodd;stroke:none;stroke-width:1px;stroke-linecap:butt;stroke-linejoin:miter;stroke-opacity:1" />
    <path
       sodipodi:nodetypes="ccccc"
       inkscape:connector-curvature="0"
       id="path4535"
       d="m 198.96815,654.72658 -13.90101,212.31345 -11.37317,3.65103 17.29362,-215.92858 z"
       style="fill:#00897b;fill-opacity:1;fill-rule:evenodd;stroke:none;stroke-width:1px;stroke-linecap:butt;stroke-linejoin:miter;stroke-opacity:1" />
    <path
       sodipodi:nodetypes="ccccc"
       inkscape:connector-curvature="0"
       id="path4537"
       d="m 164.87378,946.13023 -3.23976,70.61307 9.71906,0 5.32803,-80.31898 z"
       style="fill:#00897b;fill-opacity:1;fill-rule:evenodd;stroke:none;stroke-width:1px;stroke-linecap:butt;stroke-linejoin:miter;stroke-opacity:1" />
    <path
       sodipodi:nodetypes="cccccccc"
       inkscape:connector-curvature="0"
       id="path4539"
       d="m 94.854335,1004.2008 84.494865,-69.31153 66.95809,-48.2282 -1.08986,-4.34168 -66.84841,46.19821 -64.85754,49.38317 -18.039165,8.30911 z"
       style="fill:#00897b;fill-opacity:1;fill-rule:evenodd;stroke:none;stroke-width:1px;stroke-linecap:butt;stroke-linejoin:miter;stroke-opacity:1" />
    <path
       sodipodi:nodetypes="ccccc"
       inkscape:connector-curvature="0"
       id="path4541"
       d="m 109.65454,991.27896 -13.633765,0.44878 23.228365,-70.85715 c 4.4038,2.56108 9.50588,4.7232 7.91255,10.71064 z"
       style="fill:#00897b;fill-opacity:1;fill-rule:evenodd;stroke:none;stroke-width:1px;stroke-linecap:butt;stroke-linejoin:miter;stroke-opacity:1" />
    <path
       sodipodi:nodetypes="ccccc"
       inkscape:connector-curvature="0"
       id="path4543"
       d="m 119.17041,920.92595 126.60348,-55.09018 -0.17017,4.17156 -118.49261,61.74262 z"
       style="fill:#00897b;fill-opacity:1;fill-rule:evenodd;stroke:none;stroke-width:1px;stroke-linecap:butt;stroke-linejoin:miter;stroke-opacity:1" />
    <path
       sodipodi:nodetypes="ccccc"
       inkscape:connector-curvature="0"
       id="path4545"
       d="m 175.56468,863.20855 -74.88518,24.84176 -0.54849,9.04424 75.43367,-27.08384 z"
       style="fill:#00897b;fill-opacity:1;fill-rule:evenodd;stroke:none;stroke-width:1px;stroke-linecap:butt;stroke-linejoin:miter;stroke-opacity:1" />
    <path
       sodipodi:nodetypes="ccccccc"
       inkscape:connector-curvature="0"
       id="path4547"
       d="m 182.04395,862.72268 34.98839,-9.55544 28.38758,-5.74945 -0.24293,3.92745 -27.91302,6.06093 -35.2306,10.68227 z"
       style="fill:#00897b;fill-opacity:1;fill-rule:evenodd;stroke:none;stroke-width:1px;stroke-linecap:butt;stroke-linejoin:miter;stroke-opacity:1" />
    <path
       sodipodi:nodetypes="cccccccc"
       inkscape:connector-curvature="0"
       id="path4549"
       d="m 244.81254,732.02386 -51.83465,-58.70921 -1.05293,11.41793 47.4611,51.17822 -53.53551,60.57171 -0.0811,9.55542 58.881,-61.62441 z"
       style="fill:#00897b;fill-opacity:1;fill-rule:evenodd;stroke:none;stroke-width:1px;stroke-linecap:butt;stroke-linejoin:miter;stroke-opacity:1" />
    <path
       sodipodi:nodetypes="ccccccccc"
       inkscape:connector-curvature="0"
       id="path4551"
       d="m 245.21743,806.36184 -56.20821,-59.1141 0.89097,-18.22008 54.6693,-56.92768 -0.64793,13.28042 -49.3239,48.58693 0.0811,7.45 50.29586,53.76953 z"
       style="fill:#00897b;fill-opacity:1;fill-rule:evenodd;stroke:none;stroke-width:1px;stroke-linecap:butt;stroke-linejoin:miter;stroke-opacity:1" />
    <g
       transform="matrix(1.1262452,0,0,1.1260584,-246.56381,164.70433)"
       style="fill:#00897b;fill-opacity:1;stroke:none;stroke-opacity:1"
       id="g4553">
      <path
         sodipodi:nodetypes="ccccccccccccccccccccccccccccccccccccccccc"
         inkscape:connector-curvature="0"
         d="m 393.50779,443.04358 15.24555,-1.51017 0.94471,-8.25386 2.11937,0.0725 -0.41118,7.72522 5.02518,-0.19106 -0.0588,-7.47458 2.40528,0.0292 0.47436,7.58919 15.54704,0.35956 0.16489,4.97072 -3.70246,-1.44698 -0.0719,4.81817 -1.88178,-0.10957 -0.1969,-5.12125 -2.8833,-0.30648 0.14383,4.09904 -1.87846,-0.13872 -0.0349,-3.99458 -3.83963,-0.18148 0.28765,3.52374 -2.2293,-0.21574 -0.0719,-3.45183 -4.42435,0.1156 -0.10617,3.74304 -2.65206,0.24552 -0.0994,-3.79767 -4.08021,0.1969 0.0719,3.30799 -2.2293,1.0787 0,-3.8833 -2.68902,0.25 -0.0437,4.35243 -2.01357,1.07869 -0.24398,-5.25906 -2.25754,0.94428 -0.23117,4.67435 -2.30122,1.58208 0.60016,-5.95936 -2.61372,0.1344 z"
         style="fill:#00897b;fill-opacity:1;fill-rule:evenodd;stroke:none;stroke-width:1px;stroke-linecap:butt;stroke-linejoin:miter;stroke-opacity:1"
         id="path4555" />
      <path
         sodipodi:nodetypes="ccccccccccccccccccccccccccc"
         style="fill:#00897b;fill-opacity:1;fill-rule:evenodd;stroke:none;stroke-width:1px;stroke-linecap:butt;stroke-linejoin:miter;stroke-opacity:1"
         d="m 393.50779,453.1114 -0.35957,1.29443 0.46339,1.4855 3.06035,-2.20463 4.02713,-2.08547 5.5373,-1.76188 6.36429,-0.35955 4.09905,-2e-5 4.71029,0.10786 4.17096,0.79105 4.99795,1.7259 2.19845,2.52568 2.23441,-1.64527 0.0632,-2.20824 -4.53201,-1.33294 -4.24286,-1.36635 -5.50134,-0.86296 -2.40909,-0.0719 -4.27882,0.14382 -2.62483,0.14383 -4.13499,0.21575 -2.19335,0.50339 -2.98439,0.86295 -1.86973,0.64721 -2.69674,1.22253 -3.16417,1.58208 z"
         id="path4557"
         inkscape:connector-curvature="0" />
      <path
         sodipodi:nodetypes="cccccccc"
         inkscape:connector-curvature="0"
         id="path4559"
         d="m 411.82002,433.3587 2.2809,-2.72769 2.32067,2.8527 c 0.82169,0.78821 1.54982,0.26243 2.35155,-0.0274 l -4.77054,-5.57757 -4.31149,5.40569 c 0.61377,0.5049 1.34857,0.5688 2.12891,0.0743 z"
         style="fill:#00897b;fill-opacity:1;fill-rule:evenodd;stroke:none;stroke-width:1px;stroke-linecap:butt;stroke-linejoin:miter;stroke-opacity:1" />
    </g>
    <path
       sodipodi:nodetypes="ccccccccccccccccccccccccccccccccccccccccc"
       inkscape:connector-curvature="0"
       id="path4561"
       d="m 184.78377,812.98778 6.53684,5.01924 5.95604,0.80164 10.88134,0.22905 12.82838,0.11454 8.01774,-2.06139 7.67412,-2.40493 4.92529,-1.94684 3.28234,-1.43557 0.18841,5.57161 -3.88476,1.09733 -4.89904,0.79916 0,10.15654 -3.09256,-1.22619 0.16206,-8.54972 -4.12351,1.27638 0,6.28196 -2.63441,-0.11453 0.22907,-5.87635 -4.52908,0.81955 0.29114,5.30788 -2.73104,-0.0948 -0.018,-4.85154 -5.71861,0.0441 -0.0113,4.18737 -2.51987,-0.22329 0.0529,-4.03446 -5.97395,0.25528 -0.14911,4.23726 -3.32164,0.34357 0.21951,-4.53669 -4.572,-0.3877 -0.3078,6.54433 -3.01383,-0.0166 0.0541,-7.12651 -2.45207,-0.59884 -0.26365,9.24035 -3.04007,1.00445 0.4844,-11.18595 -4.17466,-1.06775 z"
       style="fill:#00897b;fill-opacity:1;fill-rule:evenodd;stroke:none;stroke-width:1px;stroke-linecap:butt;stroke-linejoin:miter;stroke-opacity:1" />
    <path
       inkscape:connector-curvature="0"
       id="path4563"
       d="m 184.44827,832.20757 3.09255,-1.37425 3.09256,-1.37425 4.81065,-1.7178 3.66525,-0.45808 3.66537,-0.91617 2.40532,0 7.44504,-0.80164 1.94716,0.11452 6.29965,0.45808 1.25993,0 5.03974,0.22904 2.29078,0.22904 4.23794,0.68713 2.97802,1.03068 7.90331,3.77918 0.45815,8.35999 -4.69621,-2.86301 -3.09255,-2.74848 -2.51986,-2.06138 -2.40532,-1.25972 -3.55072,-2.40494 -4.23796,-0.34356 -6.29964,-0.45808 -2.63441,-0.11452 -5.49787,-0.11452 -5.49788,1.25972 -5.95615,1.25973 -3.89433,1.25973 -6.07057,3.43562 -2.97802,2.2904 -1.60355,1.37425 z"
       style="fill:#00897b;fill-opacity:1;fill-rule:evenodd;stroke:none;stroke-width:1px;stroke-linecap:butt;stroke-linejoin:miter;stroke-opacity:1" />
    <path
       sodipodi:nodetypes="ccccccccccc"
       inkscape:connector-curvature="0"
       id="path4565"
       d="m 155.35521,726.96326 -22.67875,29.31723 -27.03135,28.5156 -51.542057,47.38318 2.60445,0.44431 50.672357,-47.10456 27.63029,-29.00949 22.30889,-29.31724 32.97072,-50.61805 0.22908,-3.20657 z"
       style="fill:#00897b;fill-opacity:1;fill-rule:evenodd;stroke:none;stroke-width:1px;stroke-linecap:butt;stroke-linejoin:miter;stroke-opacity:1" />
    <path
       sodipodi:nodetypes="ccccccccccc"
       inkscape:connector-curvature="0"
       id="path4567"
       d="m 250.29217,709.5208 12.68107,57.44489 9.82423,33.17277 13.37339,34.79829 11.34027,11.34132 -2.04819,0.31485 -10.22596,-10.72741 -14.08236,-36.29627 -9.62129,-32.52381 -12.61562,-52.92556 z"
       style="fill:#00897b;fill-opacity:1;fill-rule:evenodd;stroke:none;stroke-width:1px;stroke-linecap:butt;stroke-linejoin:miter;stroke-opacity:1" />
    <path
       sodipodi:nodetypes="ccccccccccc"
       inkscape:connector-curvature="0"
       id="path4569"
       d="m 251.91205,884.54343 31.38587,-18.48131 10.06715,-3.22737 11.28803,-3.61077 6.1743,-6.90804 -4.9869,-0.74973 -8.61341,2.79955 -7.9228,3.16173 -7.5785,3.53747 -30.04282,16.60724 z"
       style="fill:#00897b;fill-opacity:1;fill-rule:evenodd;stroke:none;stroke-width:1px;stroke-linecap:butt;stroke-linejoin:miter;stroke-opacity:1" />
    <path
       sodipodi:nodetypes="cccccccc"
       inkscape:connector-curvature="0"
       id="path4571"
       d="m 251.91205,868.73961 29.09305,-15.34575 19.97025,-5.03859 -0.22999,-2.34537 -20.70905,4.35147 -15.0668,6.23906 -12.5993,6.18411 z"
       style="fill:#00897b;fill-opacity:1;fill-rule:evenodd;stroke:none;stroke-width:1px;stroke-linecap:butt;stroke-linejoin:miter;stroke-opacity:1" />
    <path
       sodipodi:nodetypes="ccccc"
       inkscape:connector-curvature="0"
       id="path4573"
       d="m 251.4539,850.41633 52.22737,-4.16734 3.95942,-0.97838 -55.72864,1.25202 z"
       style="fill:#00897b;fill-opacity:1;fill-rule:evenodd;stroke:none;stroke-width:1px;stroke-linecap:butt;stroke-linejoin:miter;stroke-opacity:1" />
    <path
       sodipodi:nodetypes="cccccccccacc"
       inkscape:connector-curvature="0"
       id="path4575"
       d="m 99.109175,925.42309 62.424505,-78.45257 18.16667,-31.09321 40.76479,-79.22719 25.72423,-80.09796 1.79726,0.89651 -25.53445,78.79841 -21.6015,48.46004 -18.30756,34.67354 c 0,0 -11.83996,20.78638 -18.71652,30.55084 -19.87705,28.22467 -64.917835,80.69362 -64.917835,80.69362 z"
       style="fill:#00897b;fill-opacity:1;fill-rule:evenodd;stroke:none;stroke-width:1px;stroke-linecap:butt;stroke-linejoin:miter;stroke-opacity:1" />
    <path
       sodipodi:nodetypes="ccccccccc"
       inkscape:connector-curvature="0"
       id="path4577"
       d="m 192.41094,677.93041 11.30288,59.2435 17.78836,52.31274 26.45551,65.05222 0.22931,-3.92188 -25.26766,-60.59646 -18.44981,-53.98568 -11.41067,-64.5827 z"
       style="fill:#00897b;fill-opacity:1;fill-rule:evenodd;stroke:none;stroke-width:1px;stroke-linecap:butt;stroke-linejoin:miter;stroke-opacity:1" />
    <path
       sodipodi:nodetypes="ccccccccccccccc"
       inkscape:connector-curvature="0"
       id="path4579"
       d="m 228.69518,898.51504 18.14213,0 -1.45782,16.68151 -31.9107,25.75108 -6.96538,6.15433 -32.77058,26.85765 39.96527,45.41009 -13.91994,0 -32.17784,-37.90584 1.97093,-12.98364 0.91,-6.32052 73.62941,-57.33257 -1.97093,1.29987 -22.67762,0 z"
       style="fill:#00897b;fill-opacity:1;fill-rule:evenodd;stroke:none;stroke-width:1px;stroke-linecap:butt;stroke-linejoin:miter;stroke-opacity:1" />
    <path
       sodipodi:nodetypes="ccccccccccc"
       inkscape:connector-curvature="0"
       id="path4581"
       d="m 192.50216,923.01108 53.84916,45.30718 0,22.51194 -32.80155,28.5853 -12.87772,-0.081 1.98625,-7.238 4.75895,0.162 40.43266,-36.76073 0.30273,5.19104 -63.95057,-50.9415 z"
       style="fill:#00897b;fill-opacity:1;fill-rule:evenodd;stroke:none;stroke-width:1px;stroke-linecap:butt;stroke-linejoin:miter;stroke-opacity:1" />
    <path
       sodipodi:nodetypes="cc"
       inkscape:connector-curvature="0"
       id="path4585"
       d="M 48.261973,865.23899 37.871993,988.85407"
       style="fill:#00897b;fill-opacity:1;fill-rule:evenodd;stroke:#00897b;stroke-width:1.12615192;stroke-linecap:butt;stroke-linejoin:miter;stroke-miterlimit:4;stroke-dasharray:none;stroke-opacity:1" />
    <path
       sodipodi:nodetypes="cc"
       inkscape:connector-curvature="0"
       id="path4587"
       d="M 55.301013,865.52051 46.091793,989.4665"
       style="fill:#00897b;fill-opacity:1;fill-rule:evenodd;stroke:#00897b;stroke-width:1.12615192;stroke-linecap:butt;stroke-linejoin:miter;stroke-miterlimit:4;stroke-dasharray:none;stroke-opacity:1" />
    <path
       sodipodi:nodetypes="cc"
       inkscape:connector-curvature="0"
       id="path4589"
       d="m 62.621613,866.08354 -8.77745,131.85862"
       style="fill:#00897b;fill-opacity:1;fill-rule:evenodd;stroke:#00897b;stroke-width:1.12615192;stroke-linecap:butt;stroke-linejoin:miter;stroke-miterlimit:4;stroke-dasharray:none;stroke-opacity:1" />
    <path
       sodipodi:nodetypes="cc"
       inkscape:connector-curvature="0"
       id="path4591"
       d="M 69.660653,865.80202 61.462683,1003.933"
       style="fill:#00897b;fill-opacity:1;fill-rule:evenodd;stroke:#00897b;stroke-width:1.12615192;stroke-linecap:butt;stroke-linejoin:miter;stroke-miterlimit:4;stroke-dasharray:none;stroke-opacity:1" />
    <path
       sodipodi:nodetypes="ccccccc"
       inkscape:connector-curvature="0"
       id="path4593"
       d="m 49.538243,852.5902 24.89667,1.71117 5.739572,-11.1857 0.19913,-10.74929 -35.273792,-3.16497 0.0338,12.52083 z"
       style="fill:#00897b;fill-opacity:1;fill-rule:evenodd;stroke:none;stroke-width:1px;stroke-linecap:butt;stroke-linejoin:miter;stroke-opacity:1" />
    <path
       style="fill:#00897b;fill-opacity:1;fill-rule:evenodd;stroke:none;stroke-width:1;stroke-linecap:butt;stroke-linejoin:miter;stroke-miterlimit:4;stroke-dasharray:none;stroke-opacity:1"
       d="m 34.475113,995.27046 -7.21942,8.27614 1.33303,14.234 9.95582,7.2381 10.29459,-6.5871 3.09718,-12.2195 -5.9018,-10.13448 -11.5594,-0.80716 z m 1.13943,4.15675 8.47985,0.77639 2.95198,5.0958 -2.01272,7.4052 -6.42532,3.4903 -6.26253,-3.796 -0.94588,-8.2761 4.21462,-4.69559 z"
       id="path4595"
       inkscape:connector-curvature="0" />
    <path
       sodipodi:nodetypes="cccccccc"
       inkscape:connector-curvature="0"
       id="path4599"
       d="m 45.074573,1020.2907 -3.47934,7.1034 -2.85507,-0.02 -1.6815,1.9566 0.0405,1.6954 24.04798,0.8348 0.42893,-7.7314 -13.26732,-8.0144"
       style="fill:none;fill-opacity:1;fill-rule:evenodd;stroke:#00897b;stroke-width:0.84728575;stroke-linecap:butt;stroke-linejoin:miter;stroke-miterlimit:4;stroke-dasharray:none;stroke-opacity:1" />
    <path
       sodipodi:nodetypes="cccccc"
       inkscape:connector-curvature="0"
       id="path4601"
       d="m 32.840203,1019.3074 -4.09122,7.8988 -3.22384,-0.082 -1.42595,1.3776 -0.0508,2.2206 13.39558,0.2975"
       style="fill:none;fill-opacity:1;fill-rule:evenodd;stroke:#00897b;stroke-width:0.84728575;stroke-linecap:butt;stroke-linejoin:miter;stroke-miterlimit:4;stroke-dasharray:none;stroke-opacity:1" />
    <path
       sodipodi:nodetypes="cccccccccc"
       inkscape:connector-curvature="0"
       id="path4603"
       d="m 84.10289,855.83053 0.217865,15.78499 8.78671,3.97542 -6.35797,170.82296 1.95967,0.1069 7.54022,-7.2186 5.081825,-167.15046 -9.907795,-4.3558 0.64567,-9.70114 z"
       style="fill:#00897b;fill-opacity:1;fill-rule:evenodd;stroke:none;stroke-width:1px;stroke-linecap:butt;stroke-linejoin:miter;stroke-opacity:1" />
    <path
       sodipodi:nodetypes="ccccccccccccccc"
       inkscape:connector-curvature="0"
       id="path4605"
       d="m 289.01384,864.03422 4.92732,-0.14076 9.99542,3.9412 9.57309,4.22272 40.54483,25.19556 1.26702,1.12605 34.7821,22.76625 15.73781,0.74022 -15.04318,-12.24588 -21.53944,-17.73542 -22.38412,-16.75012 -22.94725,-15.76481 -13.0684,-7.0991 -13.82071,6.67682 z"
       style="fill:#00897b;fill-opacity:1;fill-rule:evenodd;stroke:none;stroke-width:1px;stroke-linecap:butt;stroke-linejoin:miter;stroke-opacity:1" />
    <path
       inkscape:connector-curvature="0"
       id="path4607"
       d="m 370.66661,965.52023 4.50499,0 -3.37874,-70.94168 -12.10713,-121.89582 -3.94186,-0.28152 10.41777,118.79916 z"
       style="fill:#00897b;fill-opacity:1;fill-rule:evenodd;stroke:none;stroke-width:1px;stroke-linecap:butt;stroke-linejoin:miter;stroke-opacity:1" />
    <path
       inkscape:connector-curvature="0"
       id="path4609"
       d="m 336.31613,965.23871 -3.37873,-93.18133 1.68937,-5.63029 0.28155,-93.18133 -2.81561,0.28151 -2.25248,92.33679 -0.56312,14.35724 1.97092,85.01741 z"
       style="fill:#00897b;fill-opacity:1;fill-rule:evenodd;stroke:none;stroke-width:1px;stroke-linecap:butt;stroke-linejoin:miter;stroke-opacity:1" />
    <path
       sodipodi:nodetypes="ccccccccccccc"
       inkscape:connector-curvature="0"
       id="path4611"
       d="m 332.60042,788.573 -4.97732,12.64037 -7.74768,17.20876 -12.23304,11.34647 -11.21166,7.53637 -17.55152,9.23425 1.99098,0.0996 16.95213,-9.37001 10.55697,-7.03664 12.21515,-11.43601 7.79373,-16.5412 4.14188,-10.94248 z"
       style="fill:#00897b;fill-opacity:1;fill-rule:evenodd;stroke:none;stroke-width:1px;stroke-linecap:butt;stroke-linejoin:miter;stroke-opacity:1" />
    <path
       sodipodi:nodetypes="ccccc"
       inkscape:connector-curvature="0"
       id="path4613"
       d="m 333.92287,776.0609 23.08802,0 0.0698,1.82985 -23.01764,0.0704 z"
       style="fill:#00897b;fill-opacity:1;fill-rule:evenodd;stroke:none;stroke-width:1px;stroke-linecap:butt;stroke-linejoin:miter;stroke-opacity:1" />
    <path
       sodipodi:nodetypes="ccccccccc"
       inkscape:connector-curvature="0"
       id="path4615"
       d="m 334.20442,781.12817 6.26317,-1.29478 11.19983,-0.10225 7.3144,0.97479 -0.28156,2.25213 -5.90952,-0.93419 -12.67612,0.25788 -5.9102,0.53555 z"
       style="fill:#00897b;fill-opacity:1;fill-rule:evenodd;stroke:none;stroke-width:1px;stroke-linecap:butt;stroke-linejoin:miter;stroke-opacity:1" />
    <path
       sodipodi:nodetypes="ccccccccc"
       inkscape:connector-curvature="0"
       id="path4617"
       d="m 341.6658,776.0609 2.81562,-8.30468 2.39327,0 3.3446,8.71841 -1.9368,0.009 -1.47459,-5.24218 -2.04492,0.0342 -1.83016,4.9265 z"
       style="fill:#00897b;fill-opacity:1;fill-rule:evenodd;stroke:none;stroke-width:1px;stroke-linecap:butt;stroke-linejoin:miter;stroke-opacity:1" />
    <path
       sodipodi:nodetypes="ccccccccc"
       inkscape:connector-curvature="0"
       id="path4619"
       d="m 332.79661,785.77316 27.17068,30.82585 -26.46677,31.38887 0.28157,5.20802 28.29691,-33.641 -1.26704,-7.31938 -27.31144,-30.26282 -0.84469,4.645 z"
       style="fill:#00897b;fill-opacity:1;fill-rule:evenodd;stroke:none;stroke-width:1px;stroke-linecap:butt;stroke-linejoin:miter;stroke-opacity:1" />
    <path
       sodipodi:nodetypes="cccccccc"
       inkscape:connector-curvature="0"
       id="path4621"
       d="m 364.61304,856.01105 -32.09799,-35.33008 0.14078,-3.6597 24.35506,-35.82272 1.26702,2.88552 -23.08802,34.97819 29.1416,31.52963 z"
       style="fill:#00897b;fill-opacity:1;fill-rule:evenodd;stroke:none;stroke-width:1px;stroke-linecap:butt;stroke-linejoin:miter;stroke-opacity:1" />
    <path
       sodipodi:nodetypes="ccccccccccccc"
       inkscape:connector-curvature="0"
       id="path4623"
       d="m 294.5481,849.74531 12.48622,-2.70038 4.55647,1.77829 5.61631,2.81927 6.53496,5.35907 7.02529,7.26079 1.37076,-0.22256 -7.12668,-7.71829 -7.12066,-5.94303 -5.30766,-3.00286 -5.21519,-2.17553 -12.10061,2.07294 z"
       style="fill:#00897b;fill-opacity:1;fill-rule:evenodd;stroke:none;stroke-width:1px;stroke-linecap:butt;stroke-linejoin:miter;stroke-opacity:1" />
    <path
       sodipodi:nodetypes="ccccccccc"
       inkscape:connector-curvature="0"
       id="path4625"
       d="m 332.69998,853.96449 6.66963,3.78216 14.23518,0.19906 9.85521,-3.68263 1.62393,2.4529 -8.59224,3.61847 -17.3212,1e-5 -5.33435,-3.17911 z"
       style="fill:#00897b;fill-opacity:1;fill-rule:evenodd;stroke:none;stroke-width:1px;stroke-linecap:butt;stroke-linejoin:miter;stroke-opacity:1" />
    <path
       sodipodi:nodetypes="cccccccccc"
       inkscape:connector-curvature="0"
       id="path4627"
       d="m 334.79041,867.79922 7.76467,-3.48356 13.23981,0.0996 8.8596,4.67793 0,-2.48826 -5.87325,-3.28451 -2.58823,-1.79155 -14.93198,-0.29858 -7.86423,4.18028 z"
       style="fill:#00897b;fill-opacity:1;fill-rule:evenodd;stroke:none;stroke-width:1px;stroke-linecap:butt;stroke-linejoin:miter;stroke-opacity:1" />
    <path
       sodipodi:nodetypes="ccccccc"
       inkscape:connector-curvature="0"
       id="path4629"
       d="m 383.92567,904.89799 -10.725,-34.24819 -6.75747,-25.61783 0.14078,-4.78574 9.15073,33.641 10.277,32.09266 z"
       style="fill:#00897b;fill-opacity:1;fill-rule:evenodd;stroke:none;stroke-width:1px;stroke-linecap:butt;stroke-linejoin:miter;stroke-opacity:1" />
    <path
       sodipodi:nodetypes="cccccccsccccccc"
       inkscape:connector-curvature="0"
       id="path4631"
       d="m 300.77025,845.9274 11.12438,-4.80234 10.95015,-8.16149 14.53385,-14.33238 12.61327,-16.14602 5.10607,-9.40208 3.58371,-10.48192 c 0,0 0.59735,-0.39813 0.39824,0.59717 -0.19912,0.99531 -3.22388,9.79436 -3.22388,9.79436 l -5.50419,10.34909 -12.07853,15.34184 -13.73365,13.86009 -12.0943,9.31343 -10.23544,4.65671 z"
       style="fill:#00897b;fill-opacity:1;fill-rule:evenodd;stroke:none;stroke-width:1px;stroke-linecap:butt;stroke-linejoin:miter;stroke-opacity:1" />
    <path
       inkscape:connector-curvature="0"
       id="path4633"
       d="m 336.88094,858.19453 0,6.66854 0.89593,0 0,-6.7183 z"
       style="fill:#00897b;fill-opacity:1;fill-rule:evenodd;stroke:none;stroke-width:1px;stroke-linecap:butt;stroke-linejoin:miter;stroke-opacity:1" />
    <path
       inkscape:connector-curvature="0"
       id="path4635"
       d="m 340.60037,858.6972 0,4.23003 1.025,-0.2746 0,-3.95543 z"
       style="fill:#00897b;fill-opacity:1;fill-rule:evenodd;stroke:none;stroke-width:1px;stroke-linecap:butt;stroke-linejoin:miter;stroke-opacity:1" />
    <path
       inkscape:connector-curvature="0"
       id="path4637"
       d="m 343.86333,858.66554 0,4.32957 1.24686,0 0,-4.23003 z"
       style="fill:#00897b;fill-opacity:1;fill-rule:evenodd;stroke:none;stroke-width:1px;stroke-linecap:butt;stroke-linejoin:miter;stroke-opacity:1" />
    <path
       inkscape:connector-curvature="0"
       id="path4639"
       d="m 347.91769,858.68011 0,4.13052 1.04427,0 0,-3.88169 -0.91767,0"
       style="fill:#00897b;fill-opacity:1;fill-rule:evenodd;stroke:none;stroke-width:1px;stroke-linecap:butt;stroke-linejoin:miter;stroke-opacity:1" />
    <path
       inkscape:connector-curvature="0"
       id="path4641"
       d="m 351.63014,858.85856 0,4.32957 0.86563,0 0,-4.23004 z"
       style="fill:#00897b;fill-opacity:1;fill-rule:evenodd;stroke:none;stroke-width:1px;stroke-linecap:butt;stroke-linejoin:miter;stroke-opacity:1" />
    <path
       inkscape:connector-curvature="0"
       id="path4643"
       d="m 355.41635,858.81733 0,4.18028 1.06994,0 0,-4.18028 z"
       style="fill:#00897b;fill-opacity:1;fill-rule:evenodd;stroke:none;stroke-width:1px;stroke-linecap:butt;stroke-linejoin:miter;stroke-opacity:1" />
    <path
       sodipodi:nodetypes="ccccc"
       inkscape:connector-curvature="0"
       id="path4645"
       d="m 358.66693,858.92644 -0.036,5.1379 1.18896,0.13567 0,-5.87076 z"
       style="fill:#00897b;fill-opacity:1;fill-rule:evenodd;stroke:none;stroke-width:1px;stroke-linecap:butt;stroke-linejoin:miter;stroke-opacity:1" />
    <path
       style="fill:#00897b;fill-opacity:1;fill-rule:evenodd;stroke:none;stroke-width:1px;stroke-linecap:butt;stroke-linejoin:miter;stroke-opacity:1"
       d="m 334.20611,775.99227 0,6.66854 0.89593,0 0,-6.7183 z"
       id="path4647"
       inkscape:connector-curvature="0" />
    <path
       style="fill:#00897b;fill-opacity:1;fill-rule:evenodd;stroke:none;stroke-width:1px;stroke-linecap:butt;stroke-linejoin:miter;stroke-opacity:1"
       d="m 337.92554,776.49493 0,4.23004 1.025,-0.2746 0,-3.95544 z"
       id="path4649"
       inkscape:connector-curvature="0" />
    <path
       style="fill:#00897b;fill-opacity:1;fill-rule:evenodd;stroke:none;stroke-width:1px;stroke-linecap:butt;stroke-linejoin:miter;stroke-opacity:1"
       d="m 341.1885,776.46327 0,4.32958 1.24687,0 0,-4.23004 z"
       id="path4651"
       inkscape:connector-curvature="0" />
    <path
       style="fill:#00897b;fill-opacity:1;fill-rule:evenodd;stroke:none;stroke-width:1px;stroke-linecap:butt;stroke-linejoin:miter;stroke-opacity:1"
       d="m 345.24287,776.47785 0,4.13051 1.04425,0 0,-3.88168 -0.91767,0"
       id="path4653"
       inkscape:connector-curvature="0" />
    <path
       style="fill:#00897b;fill-opacity:1;fill-rule:evenodd;stroke:none;stroke-width:1px;stroke-linecap:butt;stroke-linejoin:miter;stroke-opacity:1"
       d="m 348.95531,776.6563 0,4.32958 0.86563,0 0,-4.23006 z"
       id="path4655"
       inkscape:connector-curvature="0" />
    <path
       style="fill:#00897b;fill-opacity:1;fill-rule:evenodd;stroke:none;stroke-width:1px;stroke-linecap:butt;stroke-linejoin:miter;stroke-opacity:1"
       d="m 352.74152,776.61507 0,4.18028 1.06994,0 0,-4.18028 z"
       id="path4657"
       inkscape:connector-curvature="0" />
    <path
       style="fill:#00897b;fill-opacity:1;fill-rule:evenodd;stroke:none;stroke-width:1px;stroke-linecap:butt;stroke-linejoin:miter;stroke-opacity:1"
       d="m 355.99209,776.72418 -0.036,5.1379 1.18898,0.13566 0,-5.87075 z"
       id="path4659"
       inkscape:connector-curvature="0"
       sodipodi:nodetypes="ccccc" />
    <path
       sodipodi:nodetypes="cccccccc"
       inkscape:connector-curvature="0"
       id="path4661"
       d="m 335.28821,963.94563 35.13998,-34.93518 -0.59726,-2.98592 -37.92732,-32.64598 -0.49778,4.18028 36.60915,29.95159 -32.92589,33.25024 z"
       style="fill:#00897b;fill-opacity:1;fill-rule:evenodd;stroke:none;stroke-width:1px;stroke-linecap:butt;stroke-linejoin:miter;stroke-opacity:1" />
    <path
       sodipodi:nodetypes="cccccccc"
       inkscape:connector-curvature="0"
       id="path4663"
       d="m 363.36044,893.97572 -29.66508,34.73613 0.39824,3.2845 37.23052,26.27605 -0.19901,-3.48356 -34.92103,-24.61318 29.74458,-34.01027 z"
       style="fill:#00897b;fill-opacity:1;fill-rule:evenodd;stroke:none;stroke-width:1px;stroke-linecap:butt;stroke-linejoin:miter;stroke-opacity:1" />
    <path
       sodipodi:nodetypes="cccccccc"
       inkscape:connector-curvature="0"
       id="path4665"
       d="m 63.334773,1029.6177 0.25258,-6.979 -13.97706,-8.9081 -1.03275,2.5398 12.72289,7.8545 -0.31004,8.0074 0.57501,0.1771 z"
       style="fill:#00897b;fill-opacity:1;fill-rule:evenodd;stroke:none;stroke-width:1px;stroke-linecap:butt;stroke-linejoin:miter;stroke-opacity:1" />
    <path
       sodipodi:nodetypes="cccccc"
       inkscape:connector-curvature="0"
       id="path4667"
       d="m 331.04902,897.74766 36.6612,3.02421 -1.12624,-4.08196 -35.65873,-2.7427 0.60435,5.55785 z"
       style="fill:#00897b;fill-opacity:1;fill-rule:evenodd;stroke:none;stroke-width:1px;stroke-linecap:butt;stroke-linejoin:miter;stroke-opacity:1" />
    <path
       style="fill:#00897b;fill-opacity:1;fill-rule:evenodd;stroke:none;stroke-width:1px;stroke-linecap:butt;stroke-linejoin:miter;stroke-opacity:1"
       d="m 42.339844,186.10742 0.767578,13.64063 3.435547,8.76757 -2.828125,1.76954 -8.96875,0.60156 -0.21875,13.61914 -12.207032,4.22852 -16.476562,171.6875 81.009766,3.62891 6.363281,-170.89845 -8.742188,-4.1582 -0.06127,-15.45519 -5.387944,-1.25379 -0.94336,-1.20899 3.953125,-9.33789 1.181641,-13.37109 z m 9.621094,24.2832 21.230468,1.45704 3.027344,4.38672 6.59375,1.65624 -0.832031,14.1504 9.050781,4.42773 -6.708984,162.83594 -73.541016,-3.17969 15.753906,-164.08984 12.460938,-4.30274 0.195312,-12.62695 5.97461,-0.39453 z"
       id="path4201"
       transform="translate(0,642.36216)"
       inkscape:connector-curvature="0"
       sodipodi:nodetypes="cccccccccccccccccccccccccccccc" />
  </g>
</svg>
